<svg id="Main" xmlns="http://www.w3.org/2000/svg" viewBox="0 0 612 792"><defs><style>.cls-1{fill:#161f2f;}.cls-10,.cls-2,.cls-3,.cls-9{fill:#fff;}.cls-2{stroke:#5d5e6b;stroke-width:2.1165px;}.cls-2,.cls-3,.cls-8{stroke-miterlimit:10;}.cls-3{stroke:#161f2f;stroke-width:1.6509px;}.cls-10,.cls-12,.cls-13,.cls-4,.cls-5,.cls-6,.cls-9{isolation:isolate;}.cls-4,.cls-6{font-size:13.2073px;font-family:Arial-BoldMT, Arial;font-weight:700;}.cls-12,.cls-13,.cls-4,.cls-6,.cls-7{fill:#000018;}.cls-6{letter-spacing:-0.055em;}.cls-8{fill:none;stroke:#000018;stroke-width:1.2308px;}.cls-10,.cls-12,.cls-13,.cls-9{font-size:8.9933px;font-family:ArialMT, Arial;}.cls-10,.cls-13{letter-spacing:-0.0741em;}.cls-11{fill:#5d5e6b;}</style></defs><title>clements-building</title><g id="Background"><polygon class="cls-1" points="486.1 106.2 486.1 371.5 488.7 371.5 488.7 106.2 488.7 103.6 486.1 103.6 322.9 103.6 322.9 106.2 486.1 106.2"/><polygon class="cls-1" points="112.2 106.2 275.5 106.2 275.5 103.6 112.2 103.6 109.7 103.6 109.7 106.2 109.7 371.5 112.2 371.5 112.2 106.2"/><polygon class="cls-1" points="112.2 697.3 112.2 418.9 109.7 418.9 109.7 697.3 109.7 699.8 112.2 699.8 275.5 699.8 275.5 697.3 112.2 697.3"/><polygon class="cls-1" points="486.1 697.3 322.9 697.3 322.9 699.8 486.1 699.8 488.7 699.8 488.7 697.3 488.7 418.9 486.1 418.9 486.1 697.3"/><rect class="cls-1" x="482.6" y="370.2" width="9.4" height="1.4"/><rect class="cls-1" x="482.6" y="418.2" width="9.4" height="1.4"/><rect class="cls-1" x="274.2" y="693.7" width="1.4" height="9.4"/><rect class="cls-1" x="322.3" y="693.7" width="1.4" height="9.4"/><rect class="cls-1" x="106.3" y="370.2" width="9.4" height="1.4"/><rect class="cls-1" x="106.3" y="418.2" width="9.4" height="1.4"/><rect class="cls-1" x="274.2" y="100.2" width="1.4" height="9.4"/><rect class="cls-1" x="322.3" y="100.2" width="1.4" height="9.4"/><g id="Restroom_W"><rect class="cls-2" x="115.4" y="611.5" width="96.4" height="82.9"/><path class="cls-3" d="M155.8,635.1a4.4391,4.4391,0,0,0-4.4,4.4v27.9a4.4391,4.4391,0,0,0,4.4,4.4h16.7a4.4391,4.4391,0,0,0,4.4-4.4V639.5a4.3745,4.3745,0,0,0-4.3488-4.4q-.0256,0-.0512,0Z"/><path class="cls-1" d="M166.3,644.5h-4.5a2.9026,2.9026,0,0,0-2.7,2l-2,6.5a.9541.9541,0,1,0,1.8.6l1.8-5.9h1l-2.9,10.5h2.8v8.2a1.05,1.05,0,0,0,2.1,0h0v-8.3h1.1v8.3a1.05,1.05,0,0,0,2.1,0h0v-8.2h2.8l-3-10.5h1l1.8,5.9c.4,1.4,2.2.8,1.8-.6l-2-6.5A3.5093,3.5093,0,0,0,166.3,644.5Z"/><path class="cls-1" d="M164.1,644a2.3,2.3,0,1,0-2.3-2.3h0A2.3947,2.3947,0,0,0,164.1,644Z"/></g><g id="Restroom_M"><rect class="cls-2" x="386.4" y="611.5" width="96.4" height="82.9"/><path class="cls-3" d="M427.4,635.1a4.4391,4.4391,0,0,0-4.4,4.4v27.9a4.4391,4.4391,0,0,0,4.4,4.4h16.7a4.4391,4.4391,0,0,0,4.4-4.4V639.5a4.3745,4.3745,0,0,0-4.3488-4.4q-.0256,0-.0512,0Z"/><path class="cls-1" d="M435.8,644a2.3,2.3,0,1,0-2.3-2.3h0a2.263,2.263,0,0,0,2.2254,2.3Q435.7627,644.0006,435.8,644Z"/><path class="cls-1" d="M438.8,644.5h-6.1a2.9252,2.9252,0,0,0-2.9008,2.9493l.0009.0507v7a.9107.9107,0,1,0,1.8,0v-6.8h1.1v18.6a1.3,1.3,0,0,0,2.6,0V655.5h1.1v10.8a1.3,1.3,0,0,0,2.6,0V647.7h1.1v6.8a.9107.9107,0,1,0,1.8,0v-7A3.2417,3.2417,0,0,0,438.8,644.5Z"/></g></g><g id="Spaces"><g id="_1" data-name=" 1"><rect class="cls-2" x="212" y="666.7" width="56.6" height="27.6"/><text class="cls-4" transform="translate(236.2251 685.8087)">1</text></g><g id="_2" data-name=" 2"><rect class="cls-2" x="212" y="639.1" width="56.6" height="27.6"/><text class="cls-4" transform="translate(236.2251 657.7437)">2</text></g><g id="_3" data-name=" 3"><rect class="cls-2" x="212" y="611.5" width="56.6" height="27.6"/><text class="cls-4" transform="translate(236.2251 629.6777)">3</text></g><g id="_4" data-name=" 4"><rect class="cls-2" x="115.4" y="535.4" width="76" height="56.7"/><text class="cls-4" transform="translate(148.542 569.3558)">4</text></g><g id="_5" data-name=" 5"><rect class="cls-2" x="115.4" y="480.4" width="76" height="56.7"/><text class="cls-4" transform="translate(148.542 513.2248)">5</text></g><g id="_6" data-name=" 6"><rect class="cls-2" x="115.4" y="423.8" width="76" height="56.7"/><text class="cls-4" transform="translate(148.542 457.0938)">6</text></g><g id="_7" data-name=" 7"><rect class="cls-2" x="115.4" y="309.8" width="76" height="56.7"/><text class="cls-4" transform="translate(148.542 344.0599)">7</text></g><g id="_8" data-name=" 8"><rect class="cls-2" x="115.4" y="254.8" width="76" height="56.7"/><text class="cls-4" transform="translate(148.542 287.9289)">8</text></g><g id="_9" data-name=" 9"><rect class="cls-2" x="115.4" y="198.2" width="76" height="56.7"/><text class="cls-4" transform="translate(148.542 231.7979)">9</text></g><g id="_10" data-name=" 10"><rect class="cls-2" x="115.4" y="109" width="96.6" height="89.2"/><text class="cls-4" transform="translate(159.5098 154.1431)">10</text></g><g id="_11" data-name=" 11"><rect class="cls-2" x="212" y="109" width="56.7" height="82.9"/><g class="cls-5"><text class="cls-6" transform="translate(233.7251 154.1431)">1</text><text class="cls-4" transform="translate(240.3418 154.1431)">1</text></g></g><g id="_12" data-name=" 12"><rect class="cls-2" x="329.6" y="109" width="56.7" height="82.9"/><text class="cls-4" transform="translate(350.7188 154.1431)">12</text></g><g id="_13" data-name=" 13"><rect class="cls-2" x="386.2" y="109" width="96.6" height="89.2"/><text class="cls-4" transform="translate(427.0098 154.1431)">13</text></g><g id="_14" data-name=" 14"><rect class="cls-2" x="406.8" y="198.3" width="76" height="56.7"/><text class="cls-4" transform="translate(437.8135 228.918)">14</text></g><g id="_15" data-name=" 15"><rect class="cls-2" x="406.8" y="254.9" width="76" height="56.7"/><text class="cls-4" transform="translate(437.8135 285.049)">15</text></g><g id="_16" data-name=" 16"><rect class="cls-2" x="406.8" y="309.9" width="76" height="56.7"/><text class="cls-4" transform="translate(437.8135 341.18)">16</text></g><g id="_17" data-name=" 17"><rect class="cls-2" x="406.8" y="423.8" width="76" height="56.7"/><text class="cls-4" transform="translate(437.8135 454.3066)">17</text></g><g id="_18" data-name=" 18"><rect class="cls-2" x="406.8" y="480.4" width="76" height="56.7"/><text class="cls-4" transform="translate(437.8135 510.4376)">18</text></g><g id="_19" data-name=" 19"><rect class="cls-2" x="406.8" y="535.4" width="76" height="56.7"/><text class="cls-4" transform="translate(437.8135 566.5686)">19</text></g><g id="_20" data-name=" 20"><rect class="cls-2" x="329.5" y="612" width="56.6" height="27.6"/><text class="cls-4" transform="translate(351.1855 629.6777)">20</text></g><g id="_21" data-name=" 21"><rect class="cls-2" x="329.5" y="639.6" width="56.6" height="27.6"/><text class="cls-4" transform="translate(351.1855 657.7437)">21</text></g><g id="_22" data-name=" 22"><rect class="cls-2" x="329.5" y="667.2" width="56.6" height="27.6"/><text class="cls-4" transform="translate(351.1855 685.8087)">22</text></g><g id="_23" data-name=" 23"><rect class="cls-2" x="222.6" y="512" width="76" height="56.7"/><text class="cls-4" transform="translate(255.6572 545.1695)">23</text></g><g id="_24" data-name=" 24"><rect class="cls-2" x="298.5" y="512" width="76" height="56.7"/><text class="cls-4" transform="translate(330.3613 545.1695)">24</text></g><g id="_25" data-name=" 25"><rect class="cls-2" x="298.5" y="457.1" width="76" height="56.7"/><text class="cls-4" transform="translate(330.3613 490.6895)">25</text></g><g id="_26" data-name=" 26"><rect class="cls-2" x="222.6" y="457.1" width="76" height="56.7"/><text class="cls-4" transform="translate(255.6572 490.6895)">26</text></g><g id="_27" data-name=" 27"><rect class="cls-2" x="222.6" y="289.3" width="76" height="56.7"/><text class="cls-4" transform="translate(255.6738 322.0137)">27</text></g><g id="_28" data-name=" 28"><rect class="cls-2" x="298.5" y="289.3" width="76" height="56.7"/><text class="cls-4" transform="translate(330.3779 322.0137)">28</text></g><g id="_29" data-name=" 29"><rect class="cls-2" x="298.5" y="234.3" width="76" height="56.7"/><text class="cls-4" transform="translate(330.3779 267.5337)">29</text></g><g id="_30" data-name=" 30"><rect class="cls-2" x="222.6" y="234.3" width="76" height="56.7"/><text class="cls-4" transform="translate(255.6738 267.5337)">30</text></g></g><g id="Foreground"><circle class="cls-7" cx="298.9" cy="698.6" r="1.7"/><line class="cls-8" x1="298.9" y1="698.6" x2="298.9" y2="671.2"/><path class="cls-7" d="M321.3,672.1a6.2738,6.2738,0,0,1-6.2475,6.3H283a6.2738,6.2738,0,0,1-6.3-6.2475c0-.0175,0-.035,0-.0525h0a6.2738,6.2738,0,0,1,6.2475-6.3H315a6.2733,6.2733,0,0,1,6.3,6.2465Q321.3,672.0732,321.3,672.1Z"/><g class="cls-5"><text class="cls-9" transform="translate(282.4404 675.165)">10</text><text class="cls-10" transform="translate(292.4438 675.165)">’</text><text class="cls-9" transform="translate(294.1079 675.165)"><tspan xml:space="preserve"> wide</tspan></text></g><circle class="cls-7" cx="298.3" cy="105.3" r="1.7"/><line class="cls-8" x1="298.3" y1="105.3" x2="298.3" y2="132.7"/><path class="cls-7" d="M276,131.8a6.2738,6.2738,0,0,1,6.2475-6.3H314.3a6.2738,6.2738,0,0,1,6.3,6.2475q0,.0263,0,.0525h0a6.2738,6.2738,0,0,1-6.2475,6.3H282.3a6.2116,6.2116,0,0,1-6.3-6.1219Q275.9987,131.889,276,131.8Z"/><g class="cls-5"><text class="cls-9" transform="translate(281.8066 134.7993)">10</text><text class="cls-10" transform="translate(291.81 134.7993)">’</text><text class="cls-9" transform="translate(293.4741 134.7993)"><tspan xml:space="preserve"> wide</tspan></text></g><circle class="cls-7" cx="486.3" cy="395" r="1.7"/><path class="cls-7" d="M464.6,394.9a6.2738,6.2738,0,0,1-6.2475,6.3H426.3a6.2738,6.2738,0,0,1-6.3-6.2475q0-.0262,0-.0525h0a6.2738,6.2738,0,0,1,6.2475-6.3H458.3a6.2738,6.2738,0,0,1,6.3,6.2475Q464.6,394.8737,464.6,394.9Z"/><g class="cls-5"><text class="cls-9" transform="translate(425.5439 397.9902)">10</text><text class="cls-10" transform="translate(435.5473 397.9902)">’</text><text class="cls-9" transform="translate(437.2114 397.9902)"><tspan xml:space="preserve"> wide</tspan></text></g><line class="cls-8" x1="486.3" y1="395" x2="461.3" y2="395"/><circle class="cls-7" cx="111.2" cy="395" r="1.7"/><path class="cls-7" d="M132.9,394.9a6.2738,6.2738,0,0,0,6.2475,6.3H171.2a6.2738,6.2738,0,0,0,6.3-6.2475q0-.0262,0-.0525h0a6.2738,6.2738,0,0,0-6.2475-6.3H139.2a6.2738,6.2738,0,0,0-6.3,6.2475Q132.9,394.8737,132.9,394.9Z"/><g class="cls-5"><text class="cls-9" transform="translate(138.7749 397.9902)">10</text><text class="cls-10" transform="translate(148.7783 397.9902)">’</text><text class="cls-9" transform="translate(150.4424 397.9902)"><tspan xml:space="preserve"> wide</tspan></text></g><line class="cls-8" x1="135.8" y1="395" x2="110.8" y2="395"/><rect class="cls-11" x="500.4" y="104.5" width="1.4" height="276.4"/><rect class="cls-11" x="500.4" y="409.1" width="1.4" height="290.3"/><rect class="cls-11" x="496.3" y="698.6" width="9.4" height="1.4"/><rect class="cls-11" x="496.3" y="103.9" width="9.4" height="1.4"/><g class="cls-5"><text class="cls-12" transform="translate(498.5508 386.5688) rotate(90)">125</text><text class="cls-13" transform="translate(498.5508 401.5737) rotate(90)">’</text></g><rect class="cls-11" x="109.7" y="88.3" width="1.4" height="9.4"/><rect class="cls-11" x="487.2" y="88.3" width="1.4" height="9.4"/><rect class="cls-11" x="310.8" y="92.3" width="176.8" height="1.4"/><rect class="cls-11" x="110.5" y="92.3" width="172.2" height="1.4"/><g class="cls-5"><text class="cls-12" transform="translate(286.1133 96.4092)">60</text><text class="cls-13" transform="translate(296.1167 96.4092)">’</text></g><text class="cls-12" transform="translate(299.7143 96.4092)">1”</text></g></svg>